<?xml version="1.0" standalone="no"?>
<!DOCTYPE svg PUBLIC "-//W3C//DTD SVG 20010904//EN"
 "http://www.w3.org/TR/2001/REC-SVG-20010904/DTD/svg10.dtd">
<svg version="1.0" xmlns="http://www.w3.org/2000/svg"
 width="100.000000pt" height="100.000000pt" viewBox="0 0 100.000000 100.000000"
 preserveAspectRatio="xMidYMid meet">

<g transform="translate(0.000000,100.000000) scale(0.100000,-0.100000)"
fill="#000000" stroke="none">
<path d="M0 500 l0 -500 500 0 500 0 0 500 0 500 -500 0 -500 0 0 -500z m490
75 l0 -325 -25 0 -24 0 -3 120 -3 120 -165 -195 c-90 -107 -165 -193 -167
-191 -3 3 380 795 385 796 1 0 2 -146 2 -325z m72 204 l3 -121 155 114 c85 62
162 118 170 123 19 11 17 8 -119 -155 -57 -68 -105 -129 -108 -136 -2 -6 50
-121 117 -254 67 -133 120 -244 118 -246 -2 -2 -78 84 -168 191 l-165 194 -3
-120 -3 -119 -24 0 -25 0 0 325 0 325 25 0 24 0 3 -121z m331 -366 c-7 -2 -14
-17 -14 -31 l-2 -27 -4 25 c-3 14 -10 28 -17 32 -6 4 3 7 19 7 17 0 24 -3 18
-6z m45 -5 c9 -9 12 -9 12 0 0 7 7 12 15 12 10 0 15 -10 15 -30 0 -16 -4 -30
-10 -30 -5 0 -10 6 -10 14 0 18 -33 15 -42 -4 -4 -9 -7 -2 -7 18 -1 34 7 40
27 20z"/>
</g>
</svg>
